<svg width="89" height="20" viewBox="0 0 89 20" fill="none" xmlns="http://www.w3.org/2000/svg">
  <path
    d="M1.43466 15V0.454545H4.0696V12.7912H10.4759V15H1.43466ZM17.4787 15.2131C16.3849 15.2131 15.4403 14.9858 14.6449 14.5312C13.8542 14.072 13.2457 13.4233 12.8196 12.5852C12.3935 11.7424 12.1804 10.7505 12.1804 9.60938C12.1804 8.48722 12.3935 7.50237 12.8196 6.65483C13.2505 5.80256 13.8518 5.13968 14.6236 4.66619C15.3954 4.18797 16.3021 3.94886 17.3438 3.94886C18.0161 3.94886 18.6506 4.05777 19.2472 4.27557C19.8485 4.48864 20.3788 4.82008 20.8381 5.26989C21.3021 5.7197 21.6667 6.29261 21.9318 6.98864C22.197 7.67992 22.3295 8.50379 22.3295 9.46023V10.2486H13.3878V8.51562H19.8651C19.8603 8.0232 19.7538 7.58523 19.5455 7.2017C19.3371 6.81345 19.0459 6.50805 18.6719 6.28551C18.3026 6.06297 17.8717 5.9517 17.3793 5.9517C16.8537 5.9517 16.392 6.07955 15.9943 6.33523C15.5966 6.58617 15.2865 6.91761 15.0639 7.32955C14.8461 7.73674 14.7348 8.18419 14.7301 8.67188V10.1847C14.7301 10.8191 14.8461 11.3636 15.0781 11.8182C15.3101 12.268 15.6345 12.6136 16.0511 12.8551C16.4678 13.0919 16.9555 13.2102 17.5142 13.2102C17.8883 13.2102 18.2268 13.1581 18.5298 13.054C18.8329 12.9451 19.0956 12.7865 19.3182 12.5781C19.5407 12.3698 19.7088 12.1117 19.8224 11.804L22.223 12.0739C22.0715 12.7083 21.7827 13.2623 21.3565 13.7358C20.9351 14.2045 20.3954 14.5691 19.7372 14.8295C19.0791 15.0852 18.3262 15.2131 17.4787 15.2131ZM27.6438 15.2202C26.9525 15.2202 26.3299 15.0971 25.7759 14.8509C25.2267 14.5999 24.7911 14.2306 24.4691 13.7429C24.1519 13.2552 23.9933 12.6539 23.9933 11.9389C23.9933 11.3234 24.1069 10.8144 24.3342 10.4119C24.5614 10.0095 24.8716 9.6875 25.2646 9.44602C25.6576 9.20455 26.1003 9.02225 26.5927 8.89915C27.0898 8.77131 27.6036 8.67898 28.1339 8.62216C28.7731 8.55587 29.2915 8.49669 29.6893 8.4446C30.087 8.38778 30.3758 8.30256 30.5558 8.18892C30.7404 8.07055 30.8327 7.88826 30.8327 7.64205V7.59943C30.8327 7.06439 30.6741 6.65009 30.3569 6.35653C30.0397 6.06297 29.5827 5.91619 28.9862 5.91619C28.3564 5.91619 27.8569 6.0535 27.4876 6.32812C27.123 6.60275 26.8768 6.92708 26.7489 7.30114L24.3484 6.96023C24.5378 6.29735 24.8503 5.74337 25.2859 5.2983C25.7215 4.84848 26.2541 4.51231 26.8839 4.28977C27.5136 4.0625 28.2096 3.94886 28.9719 3.94886C29.4975 3.94886 30.0207 4.01042 30.5415 4.13352C31.0624 4.25663 31.5382 4.46023 31.9691 4.74432C32.4 5.02367 32.7456 5.40483 33.006 5.88778C33.2712 6.37074 33.4038 6.97443 33.4038 7.69886V15H30.9322V13.5014H30.8469C30.6907 13.8045 30.4705 14.0885 30.1864 14.3537C29.9071 14.6141 29.5543 14.8248 29.1282 14.9858C28.7068 15.142 28.212 15.2202 27.6438 15.2202ZM28.3114 13.331C28.8275 13.331 29.275 13.2292 29.6538 13.0256C30.0326 12.8172 30.3237 12.5426 30.5273 12.2017C30.7357 11.8608 30.8398 11.4891 30.8398 11.0866V9.80114C30.7594 9.86742 30.622 9.92898 30.4279 9.9858C30.2385 10.0426 30.0254 10.0923 29.7887 10.1349C29.552 10.1776 29.3176 10.2154 29.0856 10.2486C28.8536 10.2817 28.6523 10.3101 28.4819 10.3338C28.0984 10.3859 27.7551 10.4711 27.4521 10.5895C27.149 10.7079 26.9099 10.8736 26.7347 11.0866C26.5595 11.295 26.4719 11.5649 26.4719 11.8963C26.4719 12.3698 26.6448 12.7273 26.9904 12.9688C27.3361 13.2102 27.7764 13.331 28.3114 13.331ZM35.989 19.0909V4.09091H38.5174V5.89489H38.6665C38.7991 5.62973 38.9862 5.34801 39.2276 5.04972C39.4691 4.74669 39.7958 4.48864 40.2077 4.27557C40.6197 4.05777 41.1452 3.94886 41.7844 3.94886C42.6272 3.94886 43.3872 4.1643 44.0643 4.59517C44.7461 5.02131 45.2859 5.65341 45.6836 6.49148C46.0861 7.32481 46.2873 8.34754 46.2873 9.55966C46.2873 10.7576 46.0908 11.7756 45.6978 12.6136C45.3048 13.4517 44.7698 14.0909 44.0927 14.5312C43.4156 14.9716 42.6486 15.1918 41.7915 15.1918C41.1665 15.1918 40.6481 15.0876 40.2362 14.8793C39.8242 14.6709 39.4928 14.42 39.2418 14.1264C38.9956 13.8281 38.8039 13.5464 38.6665 13.2812H38.56V19.0909H35.989ZM38.5103 9.54545C38.5103 10.2509 38.6097 10.8688 38.8086 11.3991C39.0122 11.9295 39.3034 12.3437 39.6822 12.642C40.0657 12.9356 40.5297 13.0824 41.0742 13.0824C41.6424 13.0824 42.1183 12.9309 42.5018 12.6278C42.8853 12.3201 43.1741 11.901 43.3683 11.3707C43.5671 10.8357 43.6665 10.2273 43.6665 9.54545C43.6665 8.86837 43.5695 8.26705 43.3754 7.74148C43.1812 7.21591 42.8924 6.80398 42.5089 6.50568C42.1254 6.20739 41.6471 6.05824 41.0742 6.05824C40.525 6.05824 40.0586 6.20265 39.6751 6.49148C39.2915 6.7803 39.0004 7.18513 38.8015 7.70597C38.6074 8.2268 38.5103 8.83996 38.5103 9.54545ZM54.0146 4.09091V6.07955H47.5657V4.09091H54.0146ZM49.1779 15V3.06108C49.1779 2.32718 49.3294 1.71638 49.6325 1.22869C49.9402 0.741003 50.3522 0.37642 50.8683 0.134943C51.3844 -0.106535 51.9573 -0.227274 52.587 -0.227274C53.0321 -0.227274 53.4274 -0.191762 53.7731 -0.120739C54.1187 -0.0497162 54.3744 0.0142042 54.5401 0.0710225L54.0288 2.05966C53.9199 2.02651 53.7826 1.99337 53.6168 1.96023C53.4511 1.92235 53.2665 1.90341 53.0629 1.90341C52.5846 1.90341 52.2461 2.01941 52.0472 2.25142C51.8531 2.47869 51.756 2.8054 51.756 3.23153V15H49.1779ZM58.5991 0.454545V15H56.0281V0.454545H58.5991ZM66.0014 15.2131C64.9361 15.2131 64.0128 14.9787 63.2315 14.5099C62.4503 14.0412 61.8442 13.3854 61.4134 12.5426C60.9872 11.6998 60.7741 10.715 60.7741 9.58807C60.7741 8.46117 60.9872 7.47396 61.4134 6.62642C61.8442 5.77888 62.4503 5.12074 63.2315 4.65199C64.0128 4.18324 64.9361 3.94886 66.0014 3.94886C67.0668 3.94886 67.9901 4.18324 68.7713 4.65199C69.5526 5.12074 70.1563 5.77888 70.5824 6.62642C71.0133 7.47396 71.2287 8.46117 71.2287 9.58807C71.2287 10.715 71.0133 11.6998 70.5824 12.5426C70.1563 13.3854 69.5526 14.0412 68.7713 14.5099C67.9901 14.9787 67.0668 15.2131 66.0014 15.2131ZM66.0156 13.1534C66.5933 13.1534 67.0762 12.9948 67.4645 12.6776C67.8527 12.3556 68.1416 11.9247 68.331 11.3849C68.5251 10.8452 68.6222 10.2438 68.6222 9.58097C68.6222 8.91335 68.5251 8.30966 68.331 7.76989C68.1416 7.22538 67.8527 6.79214 67.4645 6.47017C67.0762 6.1482 66.5933 5.98722 66.0156 5.98722C65.4238 5.98722 64.9313 6.1482 64.5384 6.47017C64.1501 6.79214 63.8589 7.22538 63.6648 7.76989C63.4754 8.30966 63.3807 8.91335 63.3807 9.58097C63.3807 10.2438 63.4754 10.8452 63.6648 11.3849C63.8589 11.9247 64.1501 12.3556 64.5384 12.6776C64.9313 12.9948 65.4238 13.1534 66.0156 13.1534ZM75.3498 15L72.2674 4.09091H74.8881L76.8058 11.7614H76.9052L78.8654 4.09091H81.4577L83.418 11.7188H83.5245L85.4137 4.09091H88.0415L84.9521 15H82.2745L80.229 7.62784H80.0799L78.0344 15H75.3498Z"
    fill="#FBFBFB" />
</svg>